<svg width="22" height="5" viewBox="0 0 22 5" fill="none" xmlns="http://www.w3.org/2000/svg">
<path fill-rule="evenodd" clip-rule="evenodd" d="M2.2 2C2.08954 2 2 2.08954 2 2.2C2 2.31046 2.08954 2.4 2.2 2.4C2.31046 2.4 2.4 2.31046 2.4 2.2C2.4 2.08954 2.31046 2 2.2 2ZM0 2.2C0 0.984973 0.984974 0 2.2 0C3.41503 0 4.4 0.984973 4.4 2.2C4.4 3.41503 3.41503 4.4 2.2 4.4C0.984974 4.4 0 3.41503 0 2.2ZM10.6 2C10.4895 2 10.4 2.08954 10.4 2.2C10.4 2.31046 10.4895 2.4 10.6 2.4C10.7105 2.4 10.8 2.31046 10.8 2.2C10.8 2.08954 10.7105 2 10.6 2ZM8.4 2.2C8.4 0.984973 9.38497 0 10.6 0C11.815 0 12.8 0.984973 12.8 2.2C12.8 3.41503 11.815 4.4 10.6 4.4C9.38497 4.4 8.4 3.41503 8.4 2.2ZM19.3999 2.2C19.3999 2.08954 19.4894 2 19.5999 2C19.7104 2 19.7999 2.08954 19.7999 2.2C19.7999 2.31046 19.7104 2.4 19.5999 2.4C19.4894 2.4 19.3999 2.31046 19.3999 2.2ZM19.5999 0C18.3849 0 17.3999 0.984973 17.3999 2.2C17.3999 3.41503 18.3849 4.4 19.5999 4.4C20.8149 4.4 21.7999 3.41503 21.7999 2.2C21.7999 0.984973 20.8149 0 19.5999 0Z" fill="#637085"/>
</svg>
